<?xml version="1.0" encoding="UTF-8"?> <svg xmlns="http://www.w3.org/2000/svg" width="480" height="480" viewBox="0 0 480 480" fill="none"> <path d="M160 264H144V280H160V264Z" fill="#EE6F3B"></path> <path d="M160 296H144V312H160V296Z" fill="#EE6F3B"></path> <path d="M160 328H144V344H160V328Z" fill="#EE6F3B"></path> <path d="M160 232H144V248H160V232Z" fill="#EE6F3B"></path> <path d="M160 200H144V216H160V200Z" fill="#EE6F3B"></path> <path d="M160 168H144V184H160V168Z" fill="#EE6F3B"></path> <path d="M160 136H144V152H160V136Z" fill="#EE6F3B"></path> <path d="M48 136H32V152H48V136Z" fill="#EE6F3B"></path> <path d="M448 136H432V152H448V136Z" fill="#EE6F3B"></path> <path d="M448 328H432V344H448V328Z" fill="#EE6F3B"></path> <path d="M48 328H32V344H48V328Z" fill="#EE6F3B"></path> <path d="M472 200C476.418 200 480 196.418 480 192V112C480 107.582 476.418 104 472 104H8C3.582 104 0 107.582 0 112V192C0 196.418 3.582 200 8 200C30.091 200 48 217.909 48 240C48 262.091 30.091 280 8 280C3.582 280 0 283.582 0 288V368C0 372.418 3.582 376 8 376H472C476.418 376 480 372.418 480 368V288C480 283.582 476.418 280 472 280C449.909 280 432 262.091 432 240C432 217.909 449.909 200 472 200ZM416.524 247.956C420.056 272.566 439.391 291.9 464 295.432V360H16V295.432C46.614 291.038 67.87 262.659 63.476 232.044C59.944 207.435 40.61 188.1 16 184.568V120H464V184.568C433.386 188.962 412.13 217.341 416.524 247.956Z" fill="#EE6F3B"></path> <path d="M240 160C222.327 160 208 174.327 208 192C208 209.673 222.327 224 240 224C257.673 224 272 209.673 272 192C272 174.327 257.673 160 240 160ZM240 208C231.163 208 224 200.837 224 192C224 183.163 231.163 176 240 176C248.837 176 256 183.163 256 192C256 200.837 248.837 208 240 208Z" fill="#EE6F3B"></path> <path d="M336 256C318.327 256 304 270.327 304 288C304 305.673 318.327 320 336 320C353.673 320 368 305.673 368 288C368 270.327 353.673 256 336 256ZM336 304C327.163 304 320 296.837 320 288C320 279.163 327.163 272 336 272C344.837 272 352 279.163 352 288C352 296.837 344.837 304 336 304Z" fill="#EE6F3B"></path> <path d="M346.341 170.327L218.344 298.324L229.657 309.638L357.654 181.641L346.341 170.327Z" fill="#EE6F3B"></path> </svg> 